HIERARCHY
ROOT Hips
{
	OFFSET 0.000000 0.000000 0.000000
	CHANNELS 6 Xposition Yposition Zposition Zrotation Yrotation Xrotation
	JOINT LHipJoint
	{
		OFFSET 0.000000 0.000000 0.000000
		CHANNELS 3 Zrotation Yrotation Xrotation
		JOINT LeftUpLeg
		{
			OFFSET 0.076937 -0.101296 0.047373
			CHANNELS 3 Zrotation Yrotation Xrotation
			JOINT LeftLeg
			{
				OFFSET 0.138181 -0.379650 0.000000
				CHANNELS 3 Zrotation Yrotation Xrotation
				JOINT LeftFoot
				{
					OFFSET 0.144621 -0.397343 0.000000
					CHANNELS 3 Zrotation Yrotation Xrotation
					JOINT LeftToeBase
					{
						OFFSET 0.008898 -0.024446 0.131094
						CHANNELS 3 Zrotation Yrotation Xrotation
						End Site
						{
							OFFSET 0.000000 0.000000 0.000000
						}
					}
				}
			}
		}
	}
	JOINT RHipJoint
	{
		OFFSET 0.000000 0.000000 0.000000
		CHANNELS 3 Zrotation Yrotation Xrotation
		JOINT RightUpLeg
		{
			OFFSET -0.073689 -0.101296 0.047373
			CHANNELS 3 Zrotation Yrotation Xrotation
			JOINT RightLeg
			{
				OFFSET -0.143511 -0.394292 0.000000
				CHANNELS 3 Zrotation Yrotation Xrotation
				JOINT RightFoot
				{
					OFFSET -0.144963 -0.398282 0.000000
					CHANNELS 3 Zrotation Yrotation Xrotation
					JOINT RightToeBase
					{
						OFFSET -0.009298 -0.025546 0.133386
						CHANNELS 3 Zrotation Yrotation Xrotation
						End Site
						{
							OFFSET 0.000000 0.000000 0.000000
						}
					}
				}
			}
		}
	}
	JOINT LowerBack
	{
		OFFSET 0.000000 0.000000 0.000000
		CHANNELS 3 Zrotation Yrotation Xrotation
		JOINT Spine
		{
			OFFSET 0.001596 0.114897 -0.010915
			CHANNELS 3 Zrotation Yrotation Xrotation
			JOINT Spine1
			{
				OFFSET 0.003201 0.115645 -0.002413
				CHANNELS 3 Zrotation Yrotation Xrotation
				JOINT Neck
				{
					OFFSET 0.000000 0.000000 0.000000
					CHANNELS 3 Zrotation Yrotation Xrotation
					JOINT Neck1
					{
						OFFSET -0.003058 0.098565 0.009709
						CHANNELS 3 Zrotation Yrotation Xrotation
						JOINT Head
						{
							OFFSET 0.005874 0.099418 -0.006997
							CHANNELS 3 Zrotation Yrotation Xrotation
							End Site
							{
								OFFSET 0.000000 0.000000 0.000000
							}
						}
					}
				}
				JOINT LeftShoulder
				{
					OFFSET 0.000000 0.000000 0.000000
					CHANNELS 3 Zrotation Yrotation Xrotation
					JOINT LeftArm
					{
						OFFSET 0.189788 0.067783 -0.017566
						CHANNELS 3 Zrotation Yrotation Xrotation
						JOINT LeftForeArm
						{
							OFFSET 0.281260 -0.000000 -0.000000
							CHANNELS 3 Zrotation Yrotation Xrotation
							JOINT LeftHand
							{
								OFFSET 0.196626 -0.000000 -0.000000
								CHANNELS 3 Zrotation Yrotation Xrotation
								JOINT LeftFingerBase
								{
									OFFSET 0.000000 0.000000 0.000000
									CHANNELS 3 Zrotation Yrotation Xrotation
									JOINT LeftHandIndex1
									{
										OFFSET 0.040372 -0.000000 -0.000000
										CHANNELS 3 Zrotation Yrotation Xrotation
										End Site
										{
											OFFSET 0.000000 0.000000 0.000000
										}
									}
								}
								JOINT LThumb
								{
									OFFSET 0.000000 0.000000 0.000000
									CHANNELS 3 Zrotation Yrotation Xrotation
									End Site
									{
										OFFSET 0.000000 0.000000 0.000000
									}
								}
							}
						}
					}
				}
				JOINT RightShoulder
				{
					OFFSET 0.000000 0.000000 0.000000
					CHANNELS 3 Zrotation Yrotation Xrotation
					JOINT RightArm
					{
						OFFSET -0.177042 0.077557 -0.022840
						CHANNELS 3 Zrotation Yrotation Xrotation
						JOINT RightForeArm
						{
							OFFSET -0.295874 -0.000000 -0.000000
							CHANNELS 3 Zrotation Yrotation Xrotation
							JOINT RightHand
							{
								OFFSET -0.194403 -0.000000 -0.000000
								CHANNELS 3 Zrotation Yrotation Xrotation
								JOINT RightFingerBase
								{
									OFFSET 0.000000 0.000000 0.000000
									CHANNELS 3 Zrotation Yrotation Xrotation
									JOINT RightHandIndex1
									{
										OFFSET -0.035138 -0.000000 -0.000000
										CHANNELS 3 Zrotation Yrotation Xrotation
										End Site
										{
											OFFSET 0.000000 0.000000 0.000000
										}
									}
								}
								JOINT RThumb
								{
									OFFSET 0.000000 0.000000 0.000000
									CHANNELS 3 Zrotation Yrotation Xrotation
									End Site
									{
										OFFSET 0.000000 0.000000 0.000000
									}
								}
							}
						}
					}
				}
			}
		}
	}
}
MOTION
Frames: 7
Frame Time: 0.033333
5.336316 0.814802 -14.805131 179.034730 42.980005 -174.698194 -14.638050 35.757635 -23.104765 -37.277626 -17.655524 -34.353706 22.201517 0.778226 68.529790 33.074317 -2.960016 -9.302504 -7.560504 10.240907 -10.112727 10.643660 -33.567636 -14.376116 34.232261 11.877230 -22.346502 -30.242519 0.957230 74.331201 -37.647922 6.272657 -24.464517 5.675691 -10.166693 -13.823623 5.635559 -3.389066 77.222151 0.652452 -0.820815 -9.147320 -1.381833 -2.140176 8.479119 -1.416230 -2.073233 -18.930803 4.780102 -3.488559 -13.728482 -2.714231 -2.926633 -21.939059 24.054392 12.447170 -1.473934 -87.038730 -30.428353 2.076193 -178.604160 -66.060622 -169.717957 19.129412 -36.906785 17.073657 -0.338225 6.850342 0.230799 -0.011757 -0.019040 0.009182 -0.001564 -0.005478 0.001226 -23.759431 -6.834943 1.296131 86.673184 40.597503 1.406448 174.585959 66.375218 -175.100951 -16.963030 29.948756 14.238492 -2.831443 -7.809488 -0.164470 -0.023612 -0.077082 0.036618 -0.001787 0.000970 0.025213 
5.364559 0.806610 -14.831664 179.165609 42.423443 -174.460207 -15.058300 37.086931 -25.542238 -42.715293 -18.017331 -32.413520 19.771877 0.251360 59.331711 35.435016 -8.158622 -10.236453 -7.838606 9.418889 -9.727563 10.907932 -32.824372 -12.852630 31.701032 11.454996 -22.884186 -30.637048 -0.158038 75.564119 -36.486372 5.239953 -25.032358 5.860324 -10.839777 -14.982048 6.691523 -4.532579 78.667629 0.775716 -0.844503 -9.837386 -2.016625 -2.575768 9.110801 -1.255890 -2.801517 -19.265886 4.604426 -4.155263 -14.161622 -2.798203 -2.830418 -22.365512 24.366624 13.055608 -1.477800 -87.203554 -30.259347 -0.112836 -177.858016 -64.239418 -170.291291 19.453569 -35.893488 16.920409 0.356007 6.821101 0.254204 -0.012584 -0.017118 0.009671 -0.001319 -0.003825 0.001883 -25.185434 -6.957695 0.986699 86.245201 41.900285 0.848115 175.293711 65.017978 -174.745978 -16.978988 30.993971 14.019617 -2.402370 -7.345041 -0.169509 -0.023829 -0.075249 0.038951 -0.000635 0.000268 0.025435 
5.394060 0.797997 -14.859229 179.226063 42.188645 -174.759867 -15.655332 38.432844 -27.387783 -47.408859 -18.288137 -30.533312 18.650599 -0.807356 53.187805 37.103948 -12.225477 -10.004862 -8.377201 9.255379 -9.576508 11.036472 -32.503496 -11.717860 30.034230 10.867906 -22.648166 -31.681589 -0.824300 76.909618 -35.632512 4.658598 -26.246332 6.031405 -11.885997 -16.277749 7.352629 -5.196181 80.326641 0.973403 -0.359721 -10.165793 -2.366763 -3.504488 9.575133 -1.074781 -3.700714 -19.585987 4.423596 -4.911761 -14.325749 -2.859585 -2.721883 -22.546382 24.780392 13.533914 -1.702352 -87.737970 -30.238829 -2.127951 -177.435295 -63.076625 -170.767155 19.603101 -34.702681 16.758905 1.230558 6.682582 0.306079 -0.013573 -0.015391 0.010673 -0.000398 -0.003975 0.001955 -26.305478 -7.126181 1.094201 86.036720 43.340681 0.611092 175.023032 63.912315 -174.888222 -17.193285 31.914303 14.110080 -2.288672 -7.131412 -0.176977 -0.024426 -0.071628 0.042121 0.000014 -0.000389 0.024408 
5.424784 0.791170 -14.888010 179.529442 41.810475 -174.355207 -16.603359 39.095435 -29.192046 -50.836701 -17.834259 -28.915735 18.809614 -1.540841 49.636124 38.647757 -14.813773 -8.104918 -8.926945 9.705563 -9.761874 10.965607 -31.946348 -10.679919 28.310461 10.004084 -22.110791 -32.414449 -1.696889 77.926405 -35.353331 4.859141 -28.323284 5.917415 -13.082048 -17.413415 8.157614 -5.535630 81.345182 1.431135 0.612871 -10.074399 -2.852540 -4.476374 9.394021 -0.852120 -4.598457 -19.936758 4.297534 -5.597550 -13.900227 -2.884839 -2.656908 -22.342274 24.729510 13.873381 -1.903079 -88.690423 -30.904219 -2.267812 -177.720791 -62.736247 -170.489438 19.595356 -33.530035 16.949967 1.381181 6.522269 0.357620 -0.013481 -0.013161 0.011329 0.000235 -0.005578 0.000234 -27.109057 -7.469874 1.064521 86.173216 44.364528 0.948358 173.895170 62.299943 -175.590426 -17.367850 32.587013 14.011292 -2.444920 -7.003827 -0.175142 -0.024948 -0.066550 0.044442 -0.000195 0.000093 0.022375 
5.456592 0.788039 -14.917737 179.713508 41.481567 -174.118056 -17.330376 39.083497 -29.993303 -52.606870 -17.121701 -27.571584 19.416218 -1.414518 47.931611 40.435551 -16.024478 -6.118997 -9.041339 10.262476 -9.813237 10.525182 -31.671084 -9.674387 26.952067 9.224715 -21.480519 -32.611611 -2.472819 78.403644 -35.523347 5.605553 -28.904631 5.911315 -14.130883 -18.365113 8.664534 -5.458663 81.234140 1.873749 1.424145 -9.530467 -3.126565 -5.159206 8.804430 -0.822775 -5.053860 -19.984448 4.077446 -5.969804 -13.212015 -2.901093 -2.491649 -21.809882 24.396978 13.633375 -1.946210 -89.321522 -31.396373 -1.145494 -178.147365 -62.927449 -170.282921 19.609550 -32.758405 17.231325 1.180482 6.513219 0.374291 -0.014686 -0.011096 0.011552 0.000729 -0.006790 -0.001010 -27.277022 -7.745539 0.709289 86.037724 44.270241 1.461614 173.108337 61.486553 -176.047109 -17.417316 33.128838 13.896048 -2.558155 -6.891575 -0.159541 -0.024964 -0.063115 0.045688 -0.000806 0.000904 0.022159 
5.489184 0.789576 -14.948289 179.965322 41.233918 -173.528775 -17.634157 37.942378 -29.930192 -52.661880 -16.134062 -26.411848 20.283444 -0.579861 47.796145 42.042545 -15.656027 -4.017548 -8.625510 10.690546 -9.579438 9.730448 -31.347137 -8.441391 25.342881 8.663842 -21.162452 -32.271722 -3.195132 79.150364 -36.101492 7.116737 -27.384285 6.108762 -15.448675 -19.485995 8.822971 -4.915028 80.405329 2.313204 1.905682 -8.957177 -3.305507 -5.533547 7.855423 -0.998376 -5.098493 -19.784001 3.776319 -6.062670 -12.362110 -2.905848 -2.199297 -21.106649 23.827355 12.916400 -1.949075 -89.700636 -31.935647 0.848155 -178.595815 -63.655711 -169.848342 19.601175 -32.196317 17.367608 0.667807 6.829208 0.371367 -0.016758 -0.009290 0.011491 0.001069 -0.007655 -0.001439 -26.989811 -7.891554 0.024938 85.964506 43.520212 2.692657 172.642302 61.207800 -176.359239 -17.258188 33.686871 13.700027 -2.472462 -6.746427 -0.138395 -0.024641 -0.061103 0.045564 -0.001898 0.001932 0.023690 
5.521751 0.794277 -14.979105 -179.926537 40.880119 -172.805031 -17.752436 35.896500 -29.663768 -51.492299 -15.200786 -25.540178 21.668175 0.384188 49.748272 43.284280 -14.370017 -2.547260 -8.132113 10.917566 -9.140150 9.046791 -31.007824 -7.286501 23.085657 8.562545 -21.772497 -33.052947 -4.127140 80.946992 -40.154887 10.491541 -23.861404 6.607348 -18.420229 -19.337504 9.081801 -4.270719 79.498787 2.368560 1.488318 -8.626058 -3.428391 -5.327424 7.343461 -1.305034 -4.266401 -19.589683 3.511605 -5.578298 -11.886983 -2.931303 -1.872948 -20.785694 23.593639 12.073595 -1.654817 -90.027318 -32.622782 3.115116 -178.403399 -63.832644 -169.848879 19.620712 -32.248228 17.341149 -0.127549 7.329131 0.325447 -0.019936 -0.004549 0.012250 0.001051 -0.007201 -0.000173 -26.660808 -8.165299 -0.458678 86.008319 42.244806 3.558994 172.727618 61.263443 -176.213115 -16.990173 34.137417 13.594728 -2.253231 -6.669313 -0.140940 -0.023349 -0.061233 0.045110 -0.004646 0.002374 0.026380 
